<?xml version="1.0" encoding="utf-8"?>
<!-- Generator: Adobe Illustrator 26.4.1, SVG Export Plug-In . SVG Version: 6.00 Build 0)  -->
<svg version="1.1" id="Layer_1" xmlns="http://www.w3.org/2000/svg" xmlns:xlink="http://www.w3.org/1999/xlink" x="0px" y="0px"
	 viewBox="0 0 34.5 29.2" style="enable-background:new 0 0 34.5 29.2;" xml:space="preserve">
<style type="text/css">
	.st0{clip-path:url(#SVGID_00000011716416385479850190000010640849253755462308_);fill:#F15A2C;}
</style>
<g>
	<defs>
		<rect id="SVGID_1_" y="0" width="34.5" height="29.2"/>
	</defs>
	<clipPath id="SVGID_00000074428072403959670110000001917102591685343890_">
		<use xlink:href="#SVGID_1_"  style="overflow:visible;"/>
	</clipPath>
	<path style="clip-path:url(#SVGID_00000074428072403959670110000001917102591685343890_);fill:#F15A2C;" d="M10.4,0
		C4.4,4.3,0,11.4,0,19.1c0,6.3,3.9,10,8.4,10c3.9,0,7.3-3.3,7.3-7.3c0-3.9-2.9-6.8-6.6-6.8c-0.6,0-1.6,0.1-1.8,0.2
		c0.7-4.1,4.3-8.9,8.1-11.2L10.4,0z"/>
	<path style="clip-path:url(#SVGID_00000074428072403959670110000001917102591685343890_);fill:#F15A2C;" d="M29.2,0
		c-6,4.3-10.4,11.4-10.4,19.1c0,6.3,3.9,10,8.4,10c3.9,0,7.3-3.3,7.3-7.3c0-3.9-2.9-6.8-6.6-6.8c-0.6,0-1.6,0.1-1.8,0.2
		c0.7-4.1,4.3-8.9,8.1-11.2L29.2,0z"/>
</g>
</svg>
