<?xml version="1.0" encoding="utf-8"?>
<!-- Generator: Adobe Illustrator 26.5.0, SVG Export Plug-In . SVG Version: 6.00 Build 0)  -->
<svg version="1.1" id="Layer_1" xmlns="http://www.w3.org/2000/svg" xmlns:xlink="http://www.w3.org/1999/xlink" x="0px" y="0px"
	 viewBox="0 0 34.5 29.2" style="enable-background:new 0 0 34.5 29.2;" xml:space="preserve">
<style type="text/css">
	.st0{clip-path:url(#SVGID_00000042701171151030267160000004397825954481978012_);fill:#DDEDC6;}
	.st1{clip-path:url(#SVGID_00000117646428521643904100000002502719360220838534_);fill:#DDEDC6;}
</style>
<g>
	<g>
		<defs>
			<rect id="SVGID_1_" width="34.5" height="29.2"/>
		</defs>
		<clipPath id="SVGID_00000118371486317032114390000010317396129277474966_">
			<use xlink:href="#SVGID_1_"  style="overflow:visible;"/>
		</clipPath>
		<path style="clip-path:url(#SVGID_00000118371486317032114390000010317396129277474966_);fill:#DDEDC6;" d="M10.4,0
			C4.4,4.3,0,11.4,0,19.1c0,6.3,3.9,10,8.4,10c3.9,0,7.3-3.3,7.3-7.3c0-3.9-2.9-6.8-6.6-6.8c-0.6,0-1.6,0.1-1.8,0.2
			C8,11.1,11.6,6.3,15.4,4L10.4,0z"/>
	</g>
	<g>
		<defs>
			<rect id="SVGID_00000059277286838437020560000016962309549110115968_" width="34.5" height="29.2"/>
		</defs>
		<clipPath id="SVGID_00000105401177406295385420000009177342144144408486_">
			<use xlink:href="#SVGID_00000059277286838437020560000016962309549110115968_"  style="overflow:visible;"/>
		</clipPath>
		<path style="clip-path:url(#SVGID_00000105401177406295385420000009177342144144408486_);fill:#DDEDC6;" d="M29.2,0
			c-6,4.3-10.4,11.4-10.4,19.1c0,6.3,3.9,10,8.4,10c3.9,0,7.3-3.3,7.3-7.3c0-3.9-2.9-6.8-6.6-6.8c-0.6,0-1.6,0.1-1.8,0.2
			c0.7-4.1,4.3-8.9,8.1-11.2L29.2,0z"/>
	</g>
</g>
</svg>
